<svg width="90" height="91" viewBox="0 0 90 91" fill="none" xmlns="http://www.w3.org/2000/svg">
<g clip-path="url(#clip0_209_16)">
<path d="M17.4682 57.5586C17.3503 56.7223 16.9429 55.9504 16.3103 55.3929C15.7314 54.8783 14.9916 54.5674 14.2304 54.5138L11.0784 54.5031V56.004H14.0482C14.1554 56.0147 14.2626 56.0255 14.3591 56.0469C14.6593 56.1112 14.938 56.2399 15.1846 56.4221C15.592 56.7223 15.86 57.1619 15.9673 57.6551C15.9887 57.7837 15.9994 57.9231 15.9994 58.0518C15.9994 58.2018 15.9887 58.3412 15.9565 58.4806C15.785 59.3061 15.1096 59.9494 14.2733 60.078H12.5794V57.0547H11.0784V61.579H14.3913C15.9673 61.386 17.2431 60.1531 17.4682 58.5771C17.4896 58.4055 17.5111 58.234 17.5111 58.0518C17.5111 57.8909 17.5004 57.7194 17.4682 57.5586Z" fill="#A2A2A2"/>
<path d="M18.9069 54.5031V56.004H25.2324V54.5031H18.9069ZM20.4079 58.5556H24.5998V57.0547H20.4079L18.9069 57.044V61.579H25.2324V60.078H20.4079V58.5556Z" fill="#A2A2A2"/>
<path d="M28.0357 54.5031H26.1595L26.3632 54.8676L28.6789 59.0595L29.6224 57.3656L28.0357 54.5031ZM32.4099 54.5031L32.3562 54.5996L30.7159 57.5693L30.405 58.1268L30.2228 58.4484L29.2793 60.1424L30.0405 61.579H30.4372L34.0931 54.8676L34.2968 54.5031H32.4099Z" fill="#A2A2A2"/>
<path d="M38.4053 54.5245C36.4541 54.5245 34.8781 56.1112 34.8781 58.0518C34.8781 60.003 36.4541 61.579 38.4053 61.579C40.3458 61.579 41.9325 60.003 41.9325 58.0518C41.9325 56.1112 40.3458 54.5245 38.4053 54.5245ZM40.453 58.0518C40.453 59.1882 39.531 60.1102 38.4053 60.1102C37.2689 60.1102 36.3469 59.1882 36.3469 58.0518C36.3469 56.926 37.2689 56.004 38.4053 56.004C39.531 56.004 40.453 56.926 40.453 58.0518Z" fill="#A2A2A2"/>
<path d="M44.8356 60.078V54.4495H43.3346V61.579H48.9632V60.078H44.8356Z" fill="#A2A2A2"/>
<path d="M51.8684 60.078V54.4495H50.3674V61.579H55.996V60.078H51.8684Z" fill="#A2A2A2"/>
<path d="M57.4001 54.4924V61.579H58.901V54.4924H57.4001Z" fill="#A2A2A2"/>
<path d="M65.7652 58.7593L65.6901 58.9202C65.347 59.6277 64.6287 60.078 63.8461 60.078C62.8812 60.078 62.0342 59.3919 61.8412 58.4484C61.8091 58.3198 61.7984 58.1697 61.7984 58.0303C61.7984 57.8909 61.8091 57.7623 61.8412 57.6229C62.0235 56.6687 62.8705 55.9826 63.8461 55.9826C64.6716 55.9826 65.4114 56.4757 65.733 57.2262L65.808 57.3978H67.3626L67.2554 57.044C67.0517 56.3149 66.6014 55.6609 66.001 55.1999C65.3792 54.7282 64.6287 54.4816 63.8461 54.4816C62.9884 54.4816 62.1521 54.7925 61.5089 55.3608C60.8656 55.9183 60.4475 56.6902 60.3296 57.5264C60.3081 57.698 60.2974 57.8588 60.2974 58.0303C60.2974 58.2018 60.3081 58.3841 60.3296 58.5556C60.4475 59.3919 60.8763 60.1531 61.5089 60.7106C62.1629 61.2788 62.9884 61.579 63.8461 61.579C64.6073 61.579 65.3363 61.3431 65.9581 60.8928C66.5585 60.4426 66.9981 59.8422 67.2232 59.1346L67.3411 58.7593H65.7652Z" fill="#A2A2A2"/>
<path d="M0 36.5917H89.3423V25.8706C89.3423 19.9495 84.5423 15.1495 78.6212 15.1495H10.7211C4.79999 15.1495 0 19.9495 0 25.8706V36.5917Z" fill="#353099"/>
<path d="M57.1791 0.854736V47.3127H78.6212V13.9583C78.6212 6.72139 72.7546 0.854737 65.5177 0.854737L57.1791 0.854736Z" fill="#F2B311"/>
<path d="M0 36.5917L0.000348525 47.3127H26.2074V36.5917H0Z" fill="#F2B311"/>
<path d="M0 69.4126H78.6212V80.1337C78.6212 86.0547 73.8212 90.8547 67.9002 90.8547H10.7211C4.79999 90.8547 0 86.0547 0 80.1337V69.4126Z" fill="#353099"/>
<path d="M0 69.4126H26.2071V90.8547H10.7211C4.79999 90.8547 0 86.0547 0 80.1337V69.4126Z" fill="#F2B311"/>
<path d="M78.6212 69.4126H52.4141V90.8547H67.9002C73.8212 90.8547 78.6212 86.0547 78.6212 80.1337V69.4126Z" fill="#116BF2"/>
</g>
<defs>
<clipPath id="clip0_209_16">
<rect width="90" height="91" fill="white"/>
</clipPath>
</defs>
</svg>
