<svg width="208" height="50" viewBox="0 0 208 50" fill="none" xmlns="http://www.w3.org/2000/svg">
<g clip-path="url(#clip0_207_2)">
<rect width="208" height="50" fill="#00AEEF"/>
<path d="M84.7936 25.3076L82.6246 30.7021C82.4873 31.1909 82.2776 31.614 81.9956 31.9714C81.5691 32.4018 81.0558 32.617 80.4557 32.617C79.8556 32.617 79.3459 32.4018 78.9266 31.9714C78.6374 31.614 78.4241 31.1909 78.2867 30.7021L74.22 20.5805C74.1115 20.2523 74.0212 19.8875 73.9489 19.4863C73.9489 18.8808 74.1603 18.3647 74.5833 17.938C75.0062 17.5112 75.5177 17.2979 76.1178 17.2979C76.7179 17.2979 77.2312 17.5094 77.6577 17.9325C77.9397 18.2972 78.1458 18.724 78.2759 19.2127H78.2867L80.4557 24.4103L82.6246 19.2127H82.6355C82.6355 19.2054 82.6391 19.1945 82.6463 19.1799C82.7041 18.7058 82.9102 18.2899 83.2645 17.9325C83.6838 17.5094 84.1935 17.2979 84.7936 17.2979C85.3936 17.2979 85.8889 17.4985 86.2793 17.8997C86.6625 18.3009 86.883 18.7276 86.9408 19.1799C86.948 19.1945 86.9517 19.2054 86.9517 19.2127H86.9625L89.1314 24.4103L91.3004 19.2127H91.3112C91.4414 18.724 91.651 18.2972 91.9402 17.9325C92.3596 17.5094 92.8693 17.2979 93.4693 17.2979C94.0694 17.2979 94.5809 17.5112 95.0039 17.938C95.4268 18.3647 95.6383 18.8808 95.6383 19.4863C95.566 19.8875 95.4756 20.2523 95.3672 20.5805L91.3004 30.7021C91.163 31.1909 90.9534 31.614 90.6714 31.9714C90.2448 32.4018 89.7315 32.617 89.1314 32.617C88.5314 32.617 88.0217 32.4018 87.6023 31.9714C87.3132 31.614 87.0999 31.1909 86.9625 30.7021L84.7936 25.3076Z" fill="white"/>
<path d="M105.553 27.8298C106.432 27.8298 107.182 27.5021 107.806 26.8468C108.429 26.1915 108.74 25.4021 108.74 24.4787C108.74 23.5553 108.429 22.7659 107.806 22.1106C107.182 21.4553 106.432 21.1276 105.553 21.1276C104.675 21.1276 103.925 21.4553 103.301 22.1106C102.678 22.7659 102.366 23.5553 102.366 24.4787C102.366 25.4021 102.678 26.1915 103.301 26.8468C103.925 27.5021 104.675 27.8298 105.553 27.8298ZM98.1171 24.4787C98.1171 22.3191 98.843 20.476 100.295 18.9494C101.747 17.4228 103.5 16.6595 105.553 16.6595C107.607 16.6595 109.36 17.4228 110.812 18.9494C112.264 20.476 112.99 22.3191 112.99 24.4787C112.99 26.6383 112.264 28.4814 110.812 30.0079C109.36 31.5345 107.607 32.2978 105.553 32.2978C104.392 32.2978 103.33 32.0558 102.366 31.5718V36.7659C102.366 37.384 102.159 37.9109 101.745 38.3465C101.331 38.7822 100.83 39 100.242 39C99.6539 39 99.1528 38.7822 98.7385 38.3465C98.3242 37.9109 98.1171 37.384 98.1171 36.7659V24.4787Z" fill="white"/>
<path d="M120.033 27.0963C120.656 27.76 121.407 28.0919 122.285 28.0919C123.163 28.0919 123.914 27.76 124.537 27.0963C125.161 26.4326 125.472 25.6332 125.472 24.698C125.472 23.7628 125.161 22.9633 124.537 22.2997C123.914 21.636 123.163 21.3041 122.285 21.3041C121.407 21.3041 120.656 21.636 120.033 22.2997C119.41 22.9633 119.098 23.7628 119.098 24.698C119.098 25.6332 119.41 26.4326 120.033 27.0963ZM114.849 11.2626C114.849 10.6366 115.056 10.103 115.47 9.6618C115.885 9.2206 116.386 9 116.974 9C117.561 9 118.062 9.2206 118.477 9.6618C118.891 10.103 119.098 10.6366 119.098 11.2626V17.5143C120.061 17.0241 121.124 16.779 122.285 16.779C124.339 16.779 126.092 17.552 127.544 19.0981C128.996 20.6442 129.722 22.5108 129.722 24.698C129.722 26.8852 128.996 28.7518 127.544 30.2979C126.092 31.844 124.339 32.617 122.285 32.617C120.231 32.617 118.479 31.844 117.027 30.2979C115.575 28.7518 114.849 26.8852 114.849 24.698V11.2626Z" fill="white"/>
<path d="M139.637 28.2401C140.515 28.2401 141.266 27.9191 141.889 27.2772C142.512 26.6352 142.824 25.862 142.824 24.9574C142.824 24.0529 142.512 23.2796 141.889 22.6377C141.266 21.9957 140.515 21.6748 139.637 21.6748C138.759 21.6748 138.008 21.9957 137.385 22.6377C136.761 23.2796 136.45 24.0529 136.45 24.9574C136.45 25.862 136.761 26.6352 137.385 27.2772C138.008 27.9191 138.759 28.2401 139.637 28.2401ZM143.217 31.6979C142.147 32.3106 140.954 32.617 139.637 32.617C137.583 32.617 135.83 31.8693 134.378 30.3738C132.926 28.8784 132.2 27.0729 132.2 24.9574C132.2 22.8419 132.909 21.0365 134.325 19.541C135.742 18.0456 137.512 17.2979 139.637 17.2979C141.761 17.2979 143.532 18.0273 144.949 19.4863C146.365 20.9453 147.073 22.769 147.073 24.9574V30.4286C147.073 31.034 146.866 31.5501 146.452 31.9769C146.037 32.4036 145.536 32.617 144.949 32.617C144.361 32.617 143.861 32.4018 143.451 31.9714C143.359 31.8839 143.281 31.7927 143.217 31.6979Z" fill="white"/>
<path d="M153.89 23.9287L158.868 17.4351C159.287 16.9977 159.797 16.779 160.397 16.779C160.997 16.779 161.508 16.9996 161.931 17.4408C162.354 17.882 162.566 18.4156 162.566 19.0415C162.566 19.6675 162.356 20.1992 161.937 20.6367L158.759 24.698L161.937 28.748C162.356 29.193 162.566 29.7285 162.566 30.3544C162.566 30.9804 162.354 31.514 161.931 31.9552C161.508 32.3964 160.997 32.617 160.397 32.617C159.797 32.617 159.287 32.3945 158.868 31.9496L156.059 28.2616L153.586 31.5197C153.499 31.6705 153.391 31.8138 153.261 31.9496C152.834 32.3945 152.321 32.617 151.721 32.617C151.121 32.617 150.609 32.3964 150.186 31.9552C149.763 31.514 149.552 30.9804 149.552 30.3544V11.2626C149.552 10.6366 149.763 10.103 150.186 9.6618C150.609 9.2206 151.121 9 151.721 9C152.321 9 152.833 9.2206 153.255 9.6618C153.678 10.103 153.89 10.6366 153.89 11.2626V23.9287Z" fill="white"/>
<path d="M170.112 27.1459C170.147 27.1896 170.186 27.2334 170.229 27.2772C170.852 27.9191 171.603 28.2401 172.481 28.2401H175.668C176.256 28.2401 176.757 28.4535 177.171 28.8802C177.585 29.307 177.792 29.8231 177.792 30.4286C177.792 31.034 177.585 31.5501 177.171 31.9769C176.757 32.4036 176.256 32.617 175.668 32.617H172.481C170.427 32.617 168.674 31.8693 167.222 30.3738C165.77 28.8784 165.044 27.0729 165.044 24.9574C165.044 22.8419 165.77 21.0365 167.222 19.541C168.674 18.0456 170.427 17.2979 172.481 17.2979C174.535 17.2979 176.288 18.0456 177.739 19.541C179.191 21.0365 179.917 22.8419 179.917 24.9574C179.917 25.5629 179.71 26.079 179.296 26.5058C178.881 26.9325 178.38 27.1459 177.792 27.1459H170.112ZM174.85 23.3025C174.814 23.2588 175.473 22.746 174.85 22.1041C174.227 21.4622 173.359 21.1412 172.481 21.1412C171.603 21.1412 170.852 21.4622 170.229 22.1041C169.605 22.746 170.147 23.2588 170.112 23.3025H174.85Z" fill="white"/>
<path d="M184.013 18.9392C185.09 17.845 186.707 17.2979 188.862 17.2979C190.651 17.2979 192.178 17.9361 193.443 19.2127C193.766 19.5483 194.046 19.8948 194.283 20.2523C194.621 20.6535 194.79 21.1276 194.79 21.6748C194.79 22.2802 194.58 22.7963 194.159 23.2231C193.739 23.6498 193.231 23.8632 192.634 23.8632C192.038 23.8632 191.532 23.648 191.115 23.2176L190.393 22.3094C189.969 21.8863 189.459 21.6748 188.862 21.6748C188.266 21.6748 187.758 21.8881 187.337 22.3149C186.917 22.7416 186.707 23.2577 186.707 23.8632V30.4286C186.707 31.034 186.497 31.5501 186.076 31.9769C185.656 32.4036 185.148 32.617 184.551 32.617C183.955 32.617 183.447 32.4036 183.026 31.9769C182.606 31.5501 182.396 31.034 182.396 30.4286V23.8632C182.396 21.6748 182.935 20.0334 184.013 18.9392Z" fill="white"/>
<path d="M208.423 18.8936C208.423 19.5117 208.333 19.9771 208.152 20.2899L201.103 37.8829H201.092C200.998 38.0468 200.883 38.1994 200.745 38.3409C200.319 38.7803 199.805 39 199.205 39C198.605 39 198.094 38.7822 197.671 38.3465C197.248 37.9109 197.036 37.384 197.036 36.7659C197.036 36.3564 197.13 35.984 197.318 35.6489H197.307L199.574 29.9074L195.681 20.0106C195.572 19.6755 195.482 19.3032 195.41 18.8936C195.41 18.2755 195.621 17.7486 196.044 17.313C196.467 16.8774 196.979 16.6595 197.579 16.6595C198.179 16.6595 198.692 16.8755 199.119 17.3074C199.401 17.6798 199.607 18.1154 199.737 18.6143H199.748L201.917 23.9202L202.394 22.7361L204.085 18.6143H204.096C204.226 18.1154 204.436 17.6798 204.725 17.3074C205.145 16.8755 205.654 16.6595 206.254 16.6595C206.854 16.6595 207.366 16.8774 207.789 17.313C208.212 17.7486 208.423 18.2755 208.423 18.8936Z" fill="white"/>
<path fill-rule="evenodd" clip-rule="evenodd" d="M22.1632 0C30.4655 0 37.7016 4.69448 41.4983 11.643C42.4173 11.4804 43.3623 11.396 44.3264 11.396C53.5067 11.396 60.9488 19.0493 60.9488 28.49C60.9488 37.8364 53.6548 45.4308 44.6013 45.5818L44.3264 45.584L43.0105 45.584V46.7949C43.0105 48.565 41.6151 50 39.8938 50H21.1936C19.4723 50 18.0769 48.565 18.0769 46.7949L18.0772 45.1975C7.78863 43.2256 0 33.9442 0 22.792C0 10.2043 9.92281 0 22.1632 0ZM12.7677 13.1301C12.5155 13.3897 12.4137 13.7632 12.4934 14.1163L12.5196 14.212L16.4072 26.2196C16.5567 26.6533 16.9617 26.9375 17.4086 26.9225C17.8249 26.9152 18.1925 26.6505 18.3448 26.258L18.3741 26.172L19.771 21.3838C19.9097 20.9132 20.2518 20.5377 20.6942 20.3634L20.7981 20.3268L25.4509 18.8892C25.8778 18.7562 26.1725 18.3547 26.1801 17.8956C26.1881 17.4674 25.9446 17.0798 25.5692 16.9089L25.4868 16.8756L13.8189 12.8748C13.4498 12.7482 13.0428 12.847 12.7677 13.1301Z" fill="white"/>
</g>
<defs>
<clipPath id="clip0_207_2">
<rect width="208" height="50" fill="white"/>
</clipPath>
</defs>
</svg>
